<?xml version="1.0" encoding="utf-8"?>
<!-- Generator: Adobe Illustrator 19.0.0, SVG Export Plug-In . SVG Version: 6.00 Build 0)  -->
<svg version="1.1" id="Capa_1" xmlns="http://www.w3.org/2000/svg" xmlns:xlink="http://www.w3.org/1999/xlink" x="0px" y="0px"
	 viewBox="-289 382.2 32 300" style="enable-background:new -289 382.2 32 300;" xml:space="preserve">
<style type="text/css">
	.st0{fill:#FFFFFF;}
</style>
<g>
	<path class="st0" d="M-260.7,404.5c0-5-2.7-7.1-6.6-7.9v-0.1c2.6-0.8,4.6-3.3,4.6-6.9c0-4.7-3.9-7.4-8.1-7.4h-14.5v32h13.3
		C-263.9,414.2-260.7,409.2-260.7,404.5z M-277.8,387.9h1.7c1.2,0,3.1-0.1,4.2,0.5c1,0.6,1.5,1.7,1.5,2.9c0,1.1-0.5,2.2-1.3,2.9
		c-1.1,0.8-2.6,0.7-3.8,0.7h-2.2L-277.8,387.9L-277.8,387.9z M-274.2,408.3h-3.5v-8h3.9c1.2,0,2.6,0,3.7,0.6c1,0.6,1.8,2.1,1.8,3.3
		c0,1.3-0.6,2.7-1.6,3.4C-271.3,408.4-272.9,408.3-274.2,408.3z"/>
</g>
<g>
	<path class="st0" d="M-260.7,404.5c0-5-2.7-7.1-6.6-7.9v-0.1c2.6-0.8,4.6-3.3,4.6-6.9c0-4.7-3.9-7.4-8.1-7.4h-14.5v32h13.3
		C-263.9,414.2-260.7,409.2-260.7,404.5z M-277.8,387.9h1.7c1.2,0,3.1-0.1,4.2,0.5c1,0.6,1.5,1.7,1.5,2.9c0,1.1-0.5,2.2-1.3,2.9
		c-1.1,0.8-2.6,0.7-3.8,0.7h-2.2L-277.8,387.9L-277.8,387.9z M-274.2,408.3h-3.5v-8h3.9c1.2,0,2.6,0,3.7,0.6c1,0.6,1.8,2.1,1.8,3.3
		c0,1.3-0.6,2.7-1.6,3.4C-271.3,408.4-272.9,408.3-274.2,408.3z"/>
</g>
<g id="XMLID_834_">
	<path id="XMLID_835_" class="st0" d="M-280.5,500.5h3.5v14.4c0,0.3,0.2,0.5,0.5,0.5h5.9c0.3,0,0.5-0.2,0.5-0.5v-14.3h4
		c0.3,0,0.5-0.2,0.5-0.5l0.6-5.3c0-0.1,0-0.3-0.1-0.4c-0.1-0.1-0.2-0.2-0.4-0.2h-4.6v-3.3c0-1,0.5-1.5,1.6-1.5c0.2,0,3,0,3,0
		c0.3,0,0.5-0.2,0.5-0.5V484c0-0.3-0.2-0.5-0.5-0.5h-4.2c0,0-0.1,0-0.2,0c-0.7,0-3.2,0.1-5.2,2c-2.2,2-1.9,4.5-1.8,4.9v3.9h-3.7
		c-0.3,0-0.5,0.2-0.5,0.5v5.2C-281.1,500.3-280.8,500.5-280.5,500.5z"/>
</g>
<path class="st0" d="M-289,583.5v32h32v-32H-289z M-272.9,594.7c2.6,0,4.7,2.1,4.7,4.7c0,2.6-2.1,4.7-4.7,4.7s-4.7-2.1-4.7-4.7
	C-277.7,596.8-275.5,594.7-272.9,594.7z M-284.7,587.2h4.8v3.1h-4.8V587.2z M-261.3,611.3h-23.5V600h2.8c0.3,4.7,4.2,8.4,9,8.4
	s8.7-3.7,9-8.4h2.7V611.3z"/>
</svg>
