<?xml version="1.0" encoding="utf-8"?>
<!-- Generator: Adobe Illustrator 19.0.0, SVG Export Plug-In . SVG Version: 6.00 Build 0)  -->
<svg version="1.1" id="Layer_1" xmlns="http://www.w3.org/2000/svg" xmlns:xlink="http://www.w3.org/1999/xlink" x="0px" y="0px"
	 viewBox="-258 352.4 94.2 306.1" style="enable-background:new -258 352.4 94.2 306.1;" xml:space="preserve">
<style type="text/css">
	.st0{fill:#826550;}
</style>
<g>
	<g>
		<g>
			<path class="st0" d="M-170.8,484.1c-0.6,1.7-1.1,3.5-1.7,5.2c3,5.8,4.7,12.4,4.7,19.4c0,14.2-7,26.9-17.6,34.7
				c1.2,0.7,2.2,1.6,3.1,2.7c11.2-8.6,18.5-22.2,18.5-37.4C-163.8,499.7-166.4,491.3-170.8,484.1z"/>
			<path class="st0" d="M-248.5,532c0.4,0,0.9,0,1.3,0c-4.3-6.7-6.8-14.6-6.8-23.2c0-23.8,19.3-43.1,43.1-43.1
				c6.8,0,13.2,1.6,18.9,4.4c0.7-1.2,1.5-2.3,2.4-3.3c-6.4-3.2-13.6-5.1-21.3-5.1c-26,0-47.1,21.1-47.1,47.1
				c0,8.5,2.3,16.5,6.2,23.4C-250.6,532.1-249.5,532-248.5,532z"/>
		</g>
	</g>
	<path class="st0" d="M-204.5,543.7c0.4-6.1-0.9-14,0.7-19.1c4.5-0.1,9.6,0.4,13.2-0.7c8.2-14.8,12-34,18.4-50.6c0-0.9,0-1.8,0-2.6
		c-0.8-3-3.9-3.7-6.7-4.6c-0.2,0-0.4,0-0.7,0c-10.6,3.5-11.9,16.1-14.4,27.7c-15.8-4.2-32.3-0.1-32.9,15.1c-4.5,0.1-8,1.2-9.9,3.9
		c-0.6,6.7,1.6,10.7,6.6,11.8c-1.2,5.3-3.6,9.5-7.2,12.5c-6.4,0.6-15.6-1.6-19.1,2c0,0.9,0,1.8,0,2.6c3.2,3.9,12.9,1.2,19.1,2
		c6.6-3.9,8.5-12.6,11.8-19.7c4.7,0.4,10.9-0.8,14.5,0.7c0,6.6,0,13.2,0,19.7c-7.8,0.5-15.4,1.2-19.1,5.9c14.9,0,29.8,0,44.7,0
		C-188.7,545-197.9,545.7-204.5,543.7z M-220.3,508.9c0.7-11.7,15.4-11.7,25.6-8.5c0.1,4.7-0.5,10.2,1.3,13.2
		C-200.4,512.6-210.4,509.1-220.3,508.9z"/>
</g>
<g>
	<circle class="st0" cx="-210.9" cy="583.8" r="9.1"/>
	<path class="st0" d="M-190.5,592.9h-20.4h-20.4c-1.6,0-2.8,1.3-2.8,2.8v4.5c0,1.6,1.3,2.8,2.8,2.8h0.8v45.4h-0.8
		c-1.6,0-2.8,1.3-2.8,2.8v4.5c0,1.6,1.3,2.8,2.8,2.8h40.8c1.6,0,2.8-1.3,2.8-2.8v-4.5c0-1.5-1.3-2.8-2.8-2.8h-0.8V603h0.8
		c1.6,0,2.8-1.3,2.8-2.8v-4.5C-187.7,594.2-189,592.9-190.5,592.9z M-224.3,603h13.2l-13.2,13.2V603z M-197.5,648.4H-211l13.5-13.5
		V648.4z M-197.5,619.7l-26.8,26.8v-15.1l26.8-26.8V619.7z"/>
	<path class="st0" d="M-210.9,566.5c-26,0-47.1,21.1-47.1,47.1c0,15.4,7.4,29.1,18.9,37.7v-0.1c0-1.5,0.4-2.9,1.2-4.1
		c-9.8-7.9-16.1-20-16.1-33.5c0-23.8,19.3-43.1,43.1-43.1s43.1,19.3,43.1,43.1c0,13.5-6.3,25.6-16.1,33.5c0.7,1.2,1.2,2.6,1.2,4.1
		v0.1c11.5-8.6,18.9-22.3,18.9-37.7C-163.8,587.6-184.9,566.5-210.9,566.5z"/>
</g>
<g>
	<g>
		<path class="st0" d="M-167.7,380.8c-2.1-4.8-5-9.3-8.5-13.1c-0.6,1.3-1.3,2.5-2,3.8c2.6,3,4.7,6.4,6.4,10
			C-170.4,381.2-169.1,381-167.7,380.8z"/>
	</g>
	<g>
		<path class="st0" d="M-168,396c0.1,1.2,0.2,2.3,0.2,3.5c0,23.8-19.3,43.1-43.1,43.1c-0.8,0-1.6,0-2.3-0.1c0.1,0.6,0.2,1.2,0.2,1.8
			c0,0.8-0.2,1.5-0.4,2.2c0.8,0,1.7,0.1,2.5,0.1c26,0,47.1-21.1,47.1-47.1c0-2.1-0.2-4.1-0.4-6.2C-165.4,394.3-166.7,395.2-168,396z
			"/>
	</g>
	<g>
		<path class="st0" d="M-254,399.5c0-23.8,19.3-43.1,43.1-43.1c7.9,0,15.2,2.1,21.6,5.8c1.1-0.9,2.2-1.7,3.4-2.6
			c-7.3-4.6-15.9-7.2-25-7.2c-26,0-47.1,21.1-47.1,47.1c0,19.8,12.3,36.8,29.7,43.7c-0.4-1.5-0.6-3.1-0.6-4.6
			C-243.7,431.8-254,416.9-254,399.5z"/>
	</g>
	<g>
		<path class="st0" d="M-219.2,437.3c7.7-2.7,16.3-9.7,14.5-19.8c-0.9-5.1-4.5-5-7.3-9.3c14.4-12,24.2-28.7,33-46.3
			c-0.7,0-1.3,0-2,0c-7.4,5.7-21.9,17-28.4,26.4c-2.6,3.8-4.6,9.3-7.3,13.9c-4.5,7.7-15.1,21.2-6.6,31.1c-1.4,4.6-1.2,12.4,4,12.6
			C-216,444.2-220.6,441.3-219.2,437.3z M-210.9,398.5c1.4,0,2.6,1.2,2.6,2.6c0,1.4-1.2,2.6-2.6,2.6c-1.4,0-2.6-1.2-2.6-2.6
			C-213.5,399.6-212.3,398.5-210.9,398.5z M-221.2,427.4c-1.9-9,7-17,11.9-9.3C-209.1,425.6-215.5,433.9-221.2,427.4z"/>
	</g>
	<g>
		<path class="st0" d="M-202,403.6c14-5.2,30.6-7.8,39-18.5c-9.4,1.4-18.1,3.5-27.8,4.6C-192.9,396-197.8,399.4-202,403.6z"/>
	</g>
	<g>
		<path class="st0" d="M-245.7,392.4c-4.2,12.2,8.4,16,21.8,13.9c3.8-4.8,5.8-10,2-15.9C-226.8,382.9-242.8,384-245.7,392.4z
			 M-240.4,399.6c-5.1-10.8,12.9-11,14.6-5.2C-223.7,402-234.9,402.4-240.4,399.6z"/>
	</g>
</g>
</svg>
