<?xml version="1.0" encoding="utf-8"?>
<!-- Svg Vector Icons : http://www.onlinewebfonts.com/icon -->
<!DOCTYPE svg PUBLIC "-//W3C//DTD SVG 1.1//EN" "http://www.w3.org/Graphics/SVG/1.1/DTD/svg11.dtd">
<svg version="1.1" xmlns="http://www.w3.org/2000/svg" xmlns:xlink="http://www.w3.org/1999/xlink" x="0px" y="0px" viewBox="0 0 1000 1000" enable-background="new 0 0 1000 1000" xml:space="preserve">
<metadata> Svg Vector Icons : http://www.onlinewebfonts.com/icon </metadata>
<style type="text/css">
	.st10{fill:#FFFFFF;}
</style>
<g><path class="st10" d="M500,553.5c101.4,0,183.9-82.4,183.9-183.8C683.9,268.4,601.4,186,500,186c-101.4,0-183.9,82.4-183.9,183.8C316.2,471.1,398.6,553.5,500,553.5z M499.4,236.4c73.3,0,132.9,59.6,132.9,132.9c0,73.3-59.6,132.9-132.9,132.9c-73.3,0-132.9-59.6-132.9-132.9C366.5,296,426.1,236.4,499.4,236.4z"/><path class="st10" d="M500,10c-202.8,0-367.8,162.8-367.8,367.6c0,214.4,183.9,433.7,318,587.8c0.5,0.6,22,24.6,48.6,24.6c0.1,0,2.2,0,2.3,0c26.6,0,48.1-24,48.6-24.6c134.1-154.1,318-373.4,318-587.8C867.8,172.8,702.8,10,500,10z M503.6,925.2c-0.6,0.6-2.5,2-4.1,3c-0.3-0.9-2.6-2.7-4-4.1c-112.3-129.1-302-347.1-302-546.5C193.5,208.7,331,71.2,500,71.2c169,0,306.5,137.4,306.5,306.3C806.5,577,616.9,794.9,503.6,925.2z"/></g>
</svg>