<?xml version="1.0" encoding="utf-8"?>
<!-- Svg Vector Icons : http://www.onlinewebfonts.com/icon -->
<!DOCTYPE svg PUBLIC "-//W3C//DTD SVG 1.1//EN" "http://www.w3.org/Graphics/SVG/1.1/DTD/svg11.dtd">
<svg version="1.1" xmlns="http://www.w3.org/2000/svg" xmlns:xlink="http://www.w3.org/1999/xlink" x="0px" y="0px" viewBox="0 0 1000 1000" enable-background="new 0 0 1000 1000" xml:space="preserve">
<metadata> Svg Vector Icons : http://www.onlinewebfonts.com/icon </metadata>
<style type="text/css">
	.st11{fill:#FFFFFF;}
</style>
<g><g><path class="st11" d="M500,71.3c236.4,0,428.8,192.4,428.8,428.8S736.4,928.8,500,928.8S71.3,736.4,71.3,500S263.6,71.3,500,71.3 M500,10C229.4,10,10,229.4,10,500s219.4,490,490,490s490-219.4,490-490S770.6,10,500,10L500,10z M773.2,663.8l-2.8-8.4c-6.5-19.3-27.8-39.4-47.4-44.7l-72.4-19.8c-19.6-5.3-47.6,1.9-62,16.3l-26.2,26.2c-95.2-25.8-169.9-100.5-195.7-195.7l26.2-26.2c14.4-14.4,21.5-42.3,16.2-62L389.4,277c-5.3-19.6-25.5-40.9-44.8-47.4l-8.3-2.8c-19.3-6.5-46.9,0.1-61.3,14.5l-39.2,39.2c-7,6.9-11.5,26.9-11.5,26.9c-1.3,124.5,47.5,244.5,135.5,332.6c87.8,87.8,207.3,136.6,331.4,135.5c0.7,0,21.2-4.4,28.2-11.4l39.2-39.2C773.1,710.7,779.6,683.1,773.2,663.8z"/></g><g></g><g></g><g></g><g></g><g></g><g></g><g></g><g></g><g></g><g></g><g></g><g></g><g></g><g></g><g></g></g>
</svg>