<?xml version="1.0" encoding="utf-8"?>
<!-- Svg Vector Icons : http://www.onlinewebfonts.com/icon -->
<!DOCTYPE svg PUBLIC "-//W3C//DTD SVG 1.1//EN" "http://www.w3.org/Graphics/SVG/1.1/DTD/svg11.dtd">
<svg version="1.1" xmlns="http://www.w3.org/2000/svg" xmlns:xlink="http://www.w3.org/1999/xlink" x="0px" y="0px" viewBox="0 0 1000 1000" enable-background="new 0 0 1000 1000" xml:space="preserve">
<metadata> Svg Vector Icons : http://www.onlinewebfonts.com/icon </metadata>
<style type="text/css">
	.st12{fill:#FFFFFF;}
</style>
<g><g><g id="Layer_1_15_"><g><path class="st12" d="M988,429.5c-3.4-7.2-10.6-11.9-18.7-11.9h-61C869.5,207.1,684.6,47,463,47C213.2,47,10,250.2,10,500c0,249.8,203.2,453,453,453c161.2,0,311.5-86.8,392.3-226.4c11.4-19.7,4.7-44.9-15-56.3c-19.7-11.4-44.9-4.7-56.2,15c-66.1,114.3-189.2,185.3-321,185.3C258.6,870.6,92.4,704.4,92.4,500c0-204.4,166.3-370.6,370.6-370.6c176,0,323.5,123.5,361.1,288.3h-60.6c-8,0-15.3,4.6-18.7,11.9c-3.4,7.2-2.3,15.8,2.8,21.9l103,123.5c3.9,4.7,9.7,7.4,15.8,7.4c6.1,0,11.9-2.8,15.8-7.4l103-123.5C990.3,445.3,991.4,436.7,988,429.5z"/><path class="st12" d="M463,150c-22.8,0-41.2,18.4-41.2,41.2V441c-18.6,13.1-30.9,34.6-30.9,59c0,39.7,32.3,72.1,72.1,72.1c10.9,0,21.1-2.6,30.4-7l143.2,82.7c6.5,3.8,13.6,5.6,20.6,5.6c14.2,0,28.1-7.4,35.7-20.6c11.4-19.7,4.6-44.9-15.1-56.2l-143.4-82.8c-1.9-21.8-13.2-40.8-30.2-52.7V191.1C504.2,168.4,485.7,150,463,150z M463,530.9c-17,0-30.9-13.9-30.9-30.9c0-17,13.9-30.9,30.9-30.9c17,0,30.9,13.9,30.9,30.9C493.9,517,480,530.9,463,530.9z"/></g></g></g><g></g><g></g><g></g><g></g><g></g><g></g><g></g><g></g><g></g><g></g><g></g><g></g><g></g><g></g><g></g></g>
</svg>